<?xml version="1.0" encoding="utf-8"?>
<!-- Generator: Adobe Illustrator 13.0.2, SVG Export Plug-In . SVG Version: 6.00 Build 14948)  -->
<!DOCTYPE svg PUBLIC "-//W3C//DTD SVG 1.1//EN" "http://www.w3.org/Graphics/SVG/1.1/DTD/svg11.dtd">
<svg version="1.1" id="Layer_1" xmlns="http://www.w3.org/2000/svg" xmlns:xlink="http://www.w3.org/1999/xlink" x="0px" y="0px"
	 width="471.598px" height="127.35px" viewBox="0 0 471.598 127.35" enable-background="new 0 0 471.598 127.35"
	 xml:space="preserve">
<g>
	<path fill="#FF8B38" d="M63.675,0C28.508,0,0,28.506,0,63.674c0,21.656,10.819,40.775,27.338,52.279V63.674
		c0-20.068,16.268-36.336,36.337-36.336c20.069,0,36.338,16.268,36.338,36.336c0,20.07-16.269,36.338-36.338,36.338h-9.337v26.65
		v0.688h9.337c35.168,0,63.675-28.508,63.675-63.676S98.843,0,63.675,0z"/>
	<path fill="#4C4D50" d="M147.43,53.783c1.066-3.041,2.598-5.695,4.596-7.959c1.998-2.267,4.451-4.041,7.36-5.329
		c2.907-1.286,6.183-1.932,9.824-1.932c3.685,0,6.971,0.646,9.857,1.932c2.886,1.288,5.328,3.062,7.326,5.329
		c1.998,2.264,3.53,4.918,4.596,7.959c1.066,3.042,1.598,6.339,1.598,9.891c0,3.464-0.531,6.692-1.598,9.69
		c-1.065,2.997-2.598,5.604-4.596,7.825c-1.998,2.222-4.44,3.963-7.326,5.229c-2.887,1.266-6.173,1.897-9.857,1.897
		c-3.642,0-6.917-0.633-9.824-1.897c-2.909-1.267-5.362-3.008-7.36-5.229c-1.998-2.221-3.529-4.828-4.596-7.825
		c-1.065-2.998-1.599-6.228-1.599-9.69C145.831,60.122,146.364,56.825,147.43,53.783z M156.988,69.501
		c0.466,1.889,1.209,3.586,2.229,5.096c1.022,1.51,2.354,2.721,3.997,3.629c1.644,0.912,3.642,1.367,5.995,1.367
		s4.351-0.455,5.994-1.367c1.643-0.908,2.975-2.119,3.996-3.629s1.766-3.207,2.232-5.096c0.465-1.887,0.698-3.83,0.698-5.827
		c0-2.087-0.233-4.107-0.698-6.062c-0.467-1.952-1.212-3.694-2.232-5.227c-1.021-1.533-2.354-2.754-3.996-3.664
		c-1.644-0.91-3.641-1.365-5.994-1.365s-4.352,0.455-5.995,1.365s-2.975,2.131-3.997,3.664c-1.021,1.531-1.764,3.273-2.229,5.227
		c-0.467,1.955-0.699,3.977-0.699,6.062C156.289,65.671,156.521,67.615,156.988,69.501z"/>
	<path fill="#4C4D50" d="M206.104,52.817v4.396h0.134c1.153-1.865,2.619-3.219,4.395-4.062c1.776-0.844,3.73-1.266,5.862-1.266
		c2.708,0,5.039,0.512,6.993,1.532c1.953,1.021,3.574,2.375,4.862,4.062c1.287,1.688,2.242,3.653,2.864,5.896
		c0.621,2.241,0.932,4.585,0.932,7.025c0,2.31-0.311,4.529-0.932,6.66c-0.622,2.131-1.565,4.021-2.831,5.662
		c-1.265,1.644-2.842,2.953-4.729,3.93c-1.887,0.978-4.096,1.466-6.627,1.466c-2.131,0-4.096-0.435-5.895-1.3
		c-1.798-0.864-3.275-2.141-4.429-3.827h-0.134v16.315h-9.457v-46.49H206.104z M218.392,80.126c1.043-0.621,1.888-1.433,2.532-2.433
		c0.643-1,1.099-2.163,1.364-3.498c0.267-1.329,0.4-2.686,0.4-4.062c0-1.375-0.145-2.729-0.434-4.062
		c-0.289-1.332-0.766-2.52-1.432-3.563c-0.666-1.043-1.521-1.887-2.564-2.53c-1.044-0.643-2.32-0.966-3.83-0.966
		c-1.555,0-2.853,0.323-3.896,0.966c-1.044,0.645-1.888,1.477-2.531,2.497c-0.644,1.023-1.099,2.199-1.366,3.53
		c-0.266,1.334-0.398,2.709-0.398,4.129c0,1.377,0.143,2.732,0.434,4.062c0.287,1.334,0.754,2.497,1.397,3.497
		s1.499,1.812,2.563,2.433c1.066,0.621,2.354,0.932,3.863,0.932C216.05,81.058,217.349,80.747,218.392,80.126z"/>
	<path fill="#4C4D50" d="M246.312,78.993c1.42,1.377,3.463,2.063,6.127,2.063c1.91,0,3.552-0.477,4.931-1.432
		c1.375-0.955,2.219-1.965,2.53-3.031h8.324c-1.332,4.129-3.373,7.084-6.127,8.857c-2.754,1.778-6.084,2.666-9.99,2.666
		c-2.711,0-5.151-0.435-7.325-1.3c-2.177-0.864-4.021-2.098-5.527-3.696c-1.512-1.599-2.677-3.509-3.498-5.728
		c-0.823-2.221-1.233-4.662-1.233-7.328c0-2.573,0.422-4.971,1.267-7.191c0.843-2.221,2.042-4.142,3.598-5.763
		c1.553-1.618,3.405-2.896,5.561-3.829c2.152-0.933,4.539-1.398,7.16-1.398c2.932,0,5.481,0.566,7.66,1.699
		c2.174,1.133,3.963,2.652,5.358,4.562c1.399,1.91,2.41,4.085,3.031,6.527c0.62,2.442,0.844,4.995,0.666,7.659H243.98
		C244.114,75.397,244.891,77.618,246.312,78.993z M257.002,60.877c-1.131-1.243-2.854-1.865-5.16-1.865
		c-1.51,0-2.766,0.256-3.764,0.766c-1,0.513-1.799,1.146-2.398,1.898c-0.6,0.756-1.021,1.555-1.266,2.397
		c-0.244,0.845-0.389,1.6-0.434,2.266h15.387C258.924,63.939,258.135,62.121,257.002,60.877z"/>
	<path fill="#4C4D50" d="M281.241,52.817v4.795h0.2c1.199-1.997,2.752-3.449,4.662-4.36c1.908-0.909,3.863-1.366,5.861-1.366
		c2.531,0,4.605,0.344,6.227,1.033c1.621,0.688,2.898,1.643,3.83,2.863c0.935,1.223,1.588,2.709,1.965,4.463
		c0.375,1.755,0.566,3.694,0.566,5.826v21.183h-9.457V67.804c0-2.842-0.445-4.962-1.332-6.36c-0.891-1.398-2.465-2.099-4.729-2.099
		c-2.576,0-4.439,0.767-5.595,2.298s-1.731,4.052-1.731,7.561v18.051h-9.457V52.817H281.241z"/>
	<path fill="#4C4D50" d="M330.739,39.695c2.975,0,5.504,0.435,7.594,1.301c2.086,0.865,3.785,2.01,5.094,3.43
		c1.31,1.421,2.267,3.042,2.865,4.862c0.6,1.82,0.898,3.709,0.898,5.662c0,1.908-0.3,3.784-0.898,5.629
		c-0.6,1.842-1.557,3.474-2.865,4.894c-1.309,1.422-3.008,2.564-5.094,3.432c-2.09,0.865-4.619,1.298-7.594,1.298h-9.996v17.053
		h-9.457v-47.56H330.739z M327.874,62.076c1.201,0,2.354-0.089,3.465-0.267c1.107-0.179,2.086-0.522,2.93-1.033
		c0.845-0.51,1.521-1.232,2.033-2.166c0.51-0.932,0.767-2.151,0.767-3.661c0-1.511-0.257-2.731-0.767-3.664
		c-0.512-0.934-1.188-1.653-2.033-2.165c-0.844-0.51-1.821-0.854-2.93-1.032c-1.111-0.176-2.264-0.266-3.465-0.266h-7.131v14.254
		H327.874z"/>
	<path fill="#4C4D50" d="M361.002,39.695v47.559h-9.459V39.695H361.002z"/>
	<path fill="#4C4D50" d="M368.086,57.879c0.977-1.465,2.219-2.642,3.729-3.529c1.51-0.888,3.207-1.52,5.096-1.897
		c1.887-0.377,3.787-0.566,5.695-0.566c1.729,0,3.483,0.123,5.262,0.366c1.774,0.245,3.396,0.722,4.86,1.433
		c1.468,0.711,2.664,1.698,3.599,2.965c0.932,1.266,1.397,2.941,1.397,5.027v17.917c0,1.555,0.089,3.041,0.267,4.463
		c0.178,1.42,0.487,2.486,0.932,3.197h-9.59c-0.178-0.533-0.322-1.076-0.434-1.633c-0.109-0.556-0.189-1.121-0.232-1.697
		c-1.512,1.553-3.287,2.641-5.328,3.262c-2.043,0.621-4.129,0.935-6.262,0.935c-1.644,0-3.174-0.199-4.596-0.601
		c-1.421-0.399-2.664-1.021-3.729-1.864c-1.066-0.843-1.898-1.908-2.498-3.197c-0.6-1.285-0.897-2.818-0.897-4.597
		c0-1.952,0.342-3.562,1.03-4.827c0.689-1.267,1.574-2.275,2.664-3.031c1.088-0.754,2.332-1.32,3.73-1.697
		c1.397-0.377,2.809-0.678,4.229-0.897c1.42-0.224,2.82-0.402,4.197-0.535c1.375-0.133,2.596-0.332,3.662-0.601
		c1.065-0.266,1.908-0.653,2.531-1.164c0.621-0.511,0.909-1.255,0.866-2.23c0-1.021-0.168-1.832-0.5-2.433
		c-0.334-0.6-0.778-1.064-1.332-1.397c-0.557-0.332-1.2-0.555-1.932-0.666c-0.734-0.109-1.521-0.166-2.365-0.166
		c-1.864,0-3.33,0.398-4.396,1.198c-1.066,0.8-1.688,2.132-1.863,3.997h-9.459C366.553,61.188,367.11,59.345,368.086,57.879z
		 M386.768,71.233c-0.598,0.201-1.243,0.367-1.932,0.5c-0.688,0.134-1.41,0.244-2.164,0.332c-0.756,0.091-1.51,0.201-2.264,0.334
		c-0.711,0.134-1.412,0.312-2.099,0.533c-0.688,0.221-1.288,0.521-1.801,0.898c-0.51,0.379-0.92,0.854-1.229,1.432
		c-0.312,0.578-0.468,1.312-0.468,2.199c0,0.844,0.154,1.555,0.468,2.131c0.311,0.578,0.731,1.031,1.264,1.365
		c0.533,0.332,1.156,0.565,1.867,0.699c0.709,0.133,1.44,0.198,2.197,0.198c1.864,0,3.307-0.309,4.327-0.932
		c1.021-0.621,1.775-1.365,2.267-2.23c0.488-0.864,0.787-1.741,0.897-2.631c0.111-0.889,0.168-1.602,0.168-2.133V70.4
		C387.868,70.757,387.368,71.034,386.768,71.233z"/>
	<path fill="#4C4D50" d="M412.448,52.817v4.795h0.201c1.196-1.997,2.752-3.449,4.659-4.36c1.91-0.909,3.863-1.366,5.863-1.366
		c2.529,0,4.605,0.344,6.228,1.033c1.62,0.688,2.897,1.643,3.829,2.863c0.933,1.223,1.586,2.709,1.966,4.463
		c0.377,1.755,0.565,3.694,0.565,5.826v21.183h-9.459V67.804c0-2.842-0.442-4.962-1.332-6.36c-0.889-1.398-2.463-2.099-4.729-2.099
		c-2.574,0-4.439,0.767-5.597,2.298c-1.151,1.531-1.729,4.052-1.729,7.561v18.051h-9.457V52.817H412.448z"/>
	<path fill="#4C4D50" d="M449.319,78.694c0.422,0.73,0.965,1.332,1.631,1.798c0.668,0.467,1.434,0.811,2.299,1.032
		c0.865,0.223,1.766,0.332,2.697,0.332c0.666,0,1.364-0.075,2.098-0.231c0.734-0.154,1.4-0.4,2-0.732
		c0.598-0.334,1.098-0.776,1.498-1.332c0.398-0.557,0.598-1.254,0.598-2.098c0-1.422-0.94-2.488-2.827-3.199
		c-1.89-0.709-4.521-1.418-7.896-2.131c-1.377-0.309-2.719-0.676-4.029-1.098c-1.309-0.423-2.477-0.978-3.496-1.666
		c-1.021-0.688-1.844-1.554-2.465-2.599c-0.623-1.041-0.932-2.318-0.932-3.829c0-2.22,0.432-4.041,1.297-5.462
		c0.867-1.42,2.01-2.541,3.432-3.361c1.421-0.822,3.021-1.399,4.796-1.732c1.774-0.332,3.598-0.5,5.461-0.5
		c1.864,0,3.674,0.178,5.43,0.533c1.754,0.354,3.318,0.955,4.695,1.799c1.375,0.844,2.52,1.963,3.43,3.363
		c0.91,1.397,1.453,3.164,1.633,5.295h-8.992c-0.133-1.82-0.822-3.053-2.063-3.697c-1.244-0.643-2.711-0.965-4.396-0.965
		c-0.531,0-1.108,0.033-1.731,0.1c-0.621,0.066-1.188,0.211-1.697,0.435c-0.512,0.222-0.943,0.544-1.301,0.965
		c-0.354,0.422-0.531,0.988-0.531,1.699c0,0.844,0.311,1.53,0.932,2.063c0.623,0.532,1.435,0.965,2.433,1.298
		c1,0.334,2.141,0.634,3.43,0.9c1.287,0.266,2.6,0.555,3.93,0.865c1.377,0.311,2.722,0.688,4.029,1.133
		c1.312,0.443,2.475,1.033,3.498,1.764c1.021,0.732,1.84,1.646,2.465,2.73c0.621,1.09,0.933,2.434,0.933,4.03
		c0,2.265-0.457,4.162-1.365,5.693c-0.91,1.533-2.099,2.767-3.562,3.697c-1.467,0.932-3.143,1.588-5.029,1.965
		c-1.889,0.377-3.809,0.566-5.762,0.566c-1.998,0-3.953-0.199-5.86-0.601c-1.91-0.399-3.607-1.063-5.097-1.998
		c-1.487-0.932-2.709-2.164-3.662-3.696c-0.957-1.531-1.477-3.451-1.565-5.761h8.992C448.686,77.085,448.896,77.962,449.319,78.694z
		"/>
</g>
</svg>
